Motion_pu07
version=1
nRows=16
nColumns=43
inDegrees=yes
endheader
time	pelvis_tilt	pelvis_list	pelvis_rotation	pelvis_tx	pelvis_ty	pelvis_tz	hip_flexion_r	hip_adduction_r	hip_rotation_r	knee_angle_r	ankle_angle_r	subtalar_angle_r	mtp_angle_r	hip_flexion_l	hip_adduction_l	hip_rotation_l	knee_angle_l	ankle_angle_l	subtalar_angle_l	mtp_angle_l	lumbar_extension	lumbar_bending	lumbar_rotation	neck_flexion	neck_lateral_bending	neck_rotation	arm_flex_r	arm_add_r	arm_rot_r	elbow_flex_r	pro_sup_r	wrist_flex_r	wrist_dev_r	hand_finger_flex_r	arm_flex_l	arm_add_l	arm_rot_l	elbow_flex_l	pro_sup_l	wrist_flex_l	wrist_dev_l	hand_finger_flex_l
      2.46250000	      1.59015625	     -3.29560310	     93.74333253	     -0.00068814	      0.94868378	      0.26446524	     13.47650697	     -1.23354574	     -7.97353031	    -29.89119688	     12.00833436	     -0.09237798	      9.01100902	     14.34007176	     -8.33685272	     -9.15267929	    -30.65187783	      5.73464208	     22.18057745	     25.85682153	    -37.45115700	      1.57482026	      1.99919489	      0.85356402	     -5.12700694	      7.25128814	      3.60015248	    -22.85579913	    -14.20249067	     62.84421244	    120.43592030	     12.45620989	     -9.44990245	     -1.74797466	      1.21705166	    -17.21093008	    -13.32559701	     70.20808110	    112.51917232	     -8.52806660	     -3.49818247	      7.82939504
      2.46500000	      1.59435349	     -3.30383038	     93.75251025	     -0.00064784	      0.94867107	      0.26465177	     13.48393721	     -1.23138390	     -7.99014837	    -29.87539221	     12.01622178	     -0.08709456	      9.00799293	     14.36006011	     -8.34266655	     -9.15960604	    -30.64855484	      5.74048770	     22.18018469	     25.84919697	    -37.42970401	      1.58369187	      1.99477386	      0.83704825	     -5.12423996	      7.24936555	      3.89167458	    -22.92296394	    -14.23374615	     63.03419409	    120.41516029	     12.41885198	     -9.48751925	     -1.73999417	      1.50173262	    -17.24896000	    -13.32481339	     70.39553061	    112.51668120	     -8.53629540	     -3.51155525	      7.84624386
      2.46750000	      1.59889258	     -3.31985109	     93.78243012	     -0.00058717	      0.94859107	      0.26490952	     13.49794708	     -1.22125374	     -8.01482816	    -29.84764927	     12.02384616	     -0.07914757	      9.00383218	     14.39328380	     -8.34735516	     -9.16572233	    -30.64154597	      5.74519440	     22.18030357	     25.83928370	    -37.41281653	      1.59435104	      1.99763368	      0.82035638	     -5.12025396	      7.24837432	      4.18232968	    -23.00144585	    -14.25739795	     63.24949060	    120.39266696	     12.38077513	     -9.52895994	     -1.72609466	      1.77236643	    -17.30577417	    -13.31225029	     70.60766299	    112.51673459	     -8.54028529	     -3.52335752	      7.87061850
      2.47000000	      1.60898051	     -3.34053632	     93.80466145	     -0.00051331	      0.94859819	      0.26517260	     13.51257424	     -1.21298469	     -8.04064260	    -29.81343886	     12.03196752	     -0.07239409	      8.99994904	     14.42682326	     -8.35567989	     -9.16532685	    -30.62836012	      5.74993340	     22.18058467	     25.83012917	    -37.38368497	      1.61358923	      1.98701998	      0.79993969	     -5.11508113	      7.24833297	      4.45886809	    -23.08439604	    -14.28120685	     63.46646300	    120.37055060	     12.34590819	     -9.56978264	     -1.71222765	      2.03688507	    -17.36920618	    -13.29417763	     70.83022926	    112.51811354	     -8.54215611	     -3.54041376	      7.89422178
      2.47250000	      1.69798380	     -3.46971186	     93.94912738	     -0.00043092	      0.94832529	      0.26548453	     13.57415403	     -1.13807746	     -8.22592713	    -29.64936778	     12.03291691	     -0.02027757	      8.95756633	     14.63492422	     -8.42440978	     -9.00260096	    -30.62679005	      5.72119263	     22.18188510	     25.74597056	    -37.29645814	      1.74036023	      1.92319485	      0.99165244	     -5.07896568	      7.26178354	      4.50374483	    -23.33950312	    -14.09753862	     64.04822121	    120.31337422	     12.24843468	     -9.64283756	     -1.52643628	      2.08355677	    -17.73812905	    -13.01133102	     71.47091086	    112.56986586	     -8.47086303	     -3.40188206	      8.12990016
      2.47500000	      1.70089739	     -3.48081348	     93.93994376	     -0.00043067	      0.94829387	      0.26572573	     13.58923987	     -1.13852368	     -8.24441755	    -29.63311068	     12.04375792	     -0.01992448	      8.95448544	     14.65347517	     -8.41930065	     -8.98896214	    -30.62023431	      5.73130320	     22.18259213	     25.73905177	    -37.27465100	      1.74967377	      1.91980085	      0.97434783	     -5.07599184	      7.26431461	      4.80690907	    -23.41300073	    -14.14855168	     64.21887541	    120.29175375	     12.20480218	     -9.66934253	     -1.51866453	      2.36659703	    -17.76932547	    -13.02409083	     71.63674795	    112.56550290	     -8.48640817	     -3.41206230	      8.14424423
      2.47750000	      1.70440054	     -3.49971104	     93.95185836	     -0.00039340	      0.94825854	      0.26595120	     13.60375256	     -1.13206240	     -8.26225624	    -29.60807439	     12.05438566	     -0.01919570	      8.95114771	     14.67683647	     -8.41390470	     -8.96991332	    -30.59816754	      5.74211665	     22.18076077	     25.73177184	    -37.24136855	      1.75870355	      1.91369745	      0.95395270	     -5.07509162	      7.26882502	      5.09008197	    -23.47574779	    -14.18399378	     64.40169790	    120.26946916	     12.16676037	     -9.69800059	     -1.50800995	      2.63986500	    -17.80409259	    -13.02261788	     71.82281715	    112.56313441	     -8.49742017	     -3.42719841	      8.16095580
      2.48000000	      1.70700126	     -3.52800127	     93.97765092	     -0.00036369	      0.94820423	      0.26619379	     13.62468395	     -1.12121591	     -8.28303654	    -29.57039409	     12.06580662	     -0.01901844	      8.94685538	     14.70744253	     -8.40290323	     -8.94017317	    -30.56291077	      5.75351905	     22.17651055	     25.72288299	    -37.20591521	      1.76880283	      1.91177013	      0.93353598	     -5.07488610	      7.27647017	      5.36733712	    -23.54500334	    -14.21353346	     64.60382061	    120.24494799	     12.12880024	     -9.72783199	     -1.49263221	      2.89557244	    -17.85308502	    -13.01119220	     72.02331685	    112.56309154	     -8.50485274	     -3.44139398	      8.18308789
      2.48250000	      1.71293732	     -3.56016027	     93.98910678	     -0.00032741	      0.94817180	      0.26642569	     13.64484673	     -1.11572275	     -8.30394254	    -29.52710516	     12.07738541	     -0.02038651	      8.94245382	     14.73755572	     -8.39379966	     -8.90557039	    -30.52275324	      5.76451011	     22.17021521	     25.71400971	    -37.16209705	      1.78258738	      1.89911035	      0.91284329	     -5.07624547	      7.28686822	      5.63101553	    -23.61717434	    -14.24040083	     64.81124874	    120.22001518	     12.09318161	     -9.75757074	     -1.47650340	      3.14351253	    -17.90678822	    -12.99247788	     72.23199449	    112.56427718	     -8.50912260	     -3.45845164	      8.20613494
      2.48500000	      1.71681793	     -3.59536377	     93.99954543	     -0.00032428	      0.94812188	      0.26661073	     13.66524760	     -1.11025300	     -8.32660706	    -29.47931495	     12.08874592	     -0.02259246	      8.93758997	     14.76839798	     -8.38179865	     -8.86667942	    -30.48050455	      5.77502148	     22.16165600	     25.70452738	    -37.11294700	      1.79225853	      1.88966109	      0.89541315	     -5.08112727	      7.30219363	      5.88311932	    -23.69007697	    -14.26155486	     65.02601873	    120.19436563	     12.05883091	     -9.78673124	     -1.45835571	      3.37551468	    -17.96598573	    -12.96694042	     72.44463181	    112.56663174	     -8.51040315	     -3.47521193	      8.23171338
      2.48750000	      1.71818244	     -3.63384169	     94.00988955	     -0.00030470	      0.94806848	      0.26680566	     13.68639476	     -1.10550034	     -8.35161064	    -29.42764050	     12.09988488	     -0.02540801	      8.93208036	     14.80048651	     -8.36619385	     -8.82466876	    -30.43791417	      5.78528693	     22.15028668	     25.69409558	    -37.06025278	      1.79724809	      1.88523315	      0.88275667	     -5.09062583	      7.32442971	      6.12779724	    -23.76533599	    -14.27755812	     65.25070751	    120.16770990	     12.02410483	     -9.81513013	     -1.43779003	      3.59479104	    -18.03080231	    -12.93465474	     72.66289430	    112.56992137	     -8.50900474	     -3.49076207	      8.26063458
      2.49000000	      1.72120993	     -3.67226738	     94.01039602	     -0.00031773	      0.94801799	      0.26694323	     13.70763268	     -1.10518133	     -8.37788579	    -29.37437322	     12.11064218	     -0.02872596	      8.92607987	     14.83381827	     -8.35022839	     -8.78201772	    -30.39625224	      5.79534385	     22.13597393	     25.68296073	    -37.00531512	      1.80115527	      1.87673965	      0.87520402	     -5.10458195	      7.35396715	      6.36110808	    -23.84273227	    -14.29046990	     65.47931406	    120.14080207	     11.98827292	     -9.84184616	     -1.41584212	      3.80739796	    -18.09763750	    -12.89660133	     72.88528506	    112.57356162	     -8.50557830	     -3.50539882	      8.29191786
      2.49250000	      1.72199590	     -3.71181610	     94.01075913	     -0.00031739	      0.94796858	      0.26708260	     13.73029793	     -1.10553187	     -8.40596907	    -29.31968714	     12.12085100	     -0.03199945	      8.91952117	     14.86633988	     -8.33250153	     -8.73916340	    -30.35550028	      5.80543527	     22.11816014	     25.67096850	    -36.94870874	      1.80218557	      1.87149402	      0.87253029	     -5.12274146	      7.39147523	      6.58822090	    -23.92104852	    -14.30001537	     65.71465522	    120.11351465	     11.94988745	     -9.86736752	     -1.39263809	      4.01209760	    -18.16710895	    -12.85402564	     73.11002127	    112.57727150	     -8.50076791	     -3.51817739	      8.32568098
      2.49500000	      1.71932086	     -3.91237052	     94.05514083	     -0.00031765	      0.94765445	      0.26726518	     13.84588966	     -1.13098378	     -8.54727514	    -29.11024856	     12.13185499	     -0.04105424	      8.86270609	     15.04443286	     -8.23781265	     -8.41627550	    -30.21449242	      5.82543046	     21.94769775	     25.57276900	    -36.79448897	      1.82638249	      1.82370451	      1.15372304	     -5.25700096	      7.69136146	      6.52371787	    -24.19948185	    -14.12437128	     66.39432975	    120.01923766	     11.77183025	     -9.81815644	     -1.17973063	      3.98240172	    -18.56121737	    -12.53733976	     73.74240752	    112.61497538	     -8.43352043	     -3.36727224	      8.59590227
      2.49750000	      1.72126224	     -3.91443867	     94.06142601	     -0.00034513	      0.94766524	      0.26741042	     13.85618855	     -1.12852289	     -8.55892745	    -29.11463580	     12.13898657	     -0.04122035	      8.85767141	     15.05495844	     -8.22783307	     -8.40877605	    -30.21979897	      5.83215680	     21.92542260	     25.56259663	    -36.76615978	      1.83610181	      1.81697676	      1.15182296	     -5.25371162	      7.70918931	      6.80180528	    -24.24164586	    -14.16213674	     66.55988140	    119.99445840	     11.71922672	     -9.83114199	     -1.16809328	      4.23157511	    -18.56357468	    -12.54065480	     73.87639346	    112.60739262	     -8.44990398	     -3.36804086	      8.61480165
      2.50000000	      1.72279921	     -3.92715206	     94.05646450	     -0.00029447	      0.94767237	      0.26753071	     13.86946864	     -1.12462842	     -8.57564425	    -29.10145146	     12.14609620	     -0.04194253	      8.85227118	     15.06455685	     -8.22028782	     -8.39221014	    -30.20509446	      5.84024656	     21.90064294	     25.55202755	    -36.72955303	      1.83865030	      1.81280791	      1.13872496	     -5.25480270	      7.73130303	      7.06094216	    -24.28403378	    -14.19242742	     66.73829760	    119.96967154	     11.66685536	     -9.84714673	     -1.15550287	      4.47133056	    -18.58162106	    -12.53900114	     74.03081716	    112.60049000	     -8.46437236	     -3.37350640	      8.63537992
